HIERARCHY
ROOT ROOT
{
	OFFSET 0.000000 56.020000 -5.659234
	CHANNELS 6 Xposition Yposition Zposition Xrotation Yrotation Zrotation 
	JOINT C_spine0001_bind_JNT
	{
		OFFSET 0.000000 1.618999 0.000000
		CHANNELS 3 Xrotation Yrotation Zrotation
		JOINT C_spine0002_bind_JNT
		{
			OFFSET 0.000000 4.942001 0.000001
			CHANNELS 3 Xrotation Yrotation Zrotation
			JOINT C_spine0003_bind_JNT
			{
				OFFSET 0.000000 4.942001 -0.000000
				CHANNELS 3 Xrotation Yrotation Zrotation
				JOINT C_neck0001_bind_JNT
				{
					OFFSET 0.000000 17.026009 -0.000000
					CHANNELS 3 Xrotation Yrotation Zrotation
					JOINT C_neck0002_bind_JNT
					{
						OFFSET 0.000000 3.249985 0.000000
						CHANNELS 3 Xrotation Yrotation Zrotation
						JOINT C_head_bind_JNT
						{
							OFFSET 0.000000 5.278008 0.000000
							CHANNELS 3 Xrotation Yrotation Zrotation
							End Site
							{
								OFFSET 0.000000 0.000000 0.000000
							}
						}
					}
				}
				JOINT L_clavicle_bind_JNT
				{
					OFFSET 4.590000 12.067001 0.834000
					CHANNELS 3 Xrotation Yrotation Zrotation
					JOINT L_armUpper0001_bind_JNT
					{
						OFFSET 7.812635 0.512001 -3.452945
						CHANNELS 3 Xrotation Yrotation Zrotation
						JOINT L_armLower0001_bind_JNT
						{
							OFFSET 15.265892 -6.552116 -0.058157
							CHANNELS 3 Xrotation Yrotation Zrotation
							JOINT L_hand0001_bind_JNT
							{
								OFFSET 14.747667 -6.369995 5.049225
								CHANNELS 3 Xrotation Yrotation Zrotation
								End Site
								{
									OFFSET 0.000000 0.000000 0.000000
								}
							}
						}
					}
				}
				JOINT R_clavicle_bind_JNT
				{
					OFFSET -4.590000 12.067001 0.834000
					CHANNELS 3 Xrotation Yrotation Zrotation
					JOINT R_armUpper0001_bind_JNT
					{
						OFFSET -7.812635 0.512001 -3.452945
						CHANNELS 3 Xrotation Yrotation Zrotation
						JOINT R_armLower0001_bind_JNT
						{
							OFFSET -15.265890 -6.552124 -0.058160
							CHANNELS 3 Xrotation Yrotation Zrotation
							JOINT R_hand0001_bind_JNT
							{
								OFFSET -14.746784 -6.369629 5.048937
								CHANNELS 3 Xrotation Yrotation Zrotation
								End Site
								{
									OFFSET 0.000000 0.000000 0.000000
								}
							}
						}
					}
				}
			}
		}
	}
	JOINT C_pelvis0001_bind_JNT
	{
		OFFSET -0.000000 0.000000 0.000000
		CHANNELS 3 Xrotation Yrotation Zrotation
		JOINT L_legUpper0001_bind_JNT
		{
			OFFSET 6.599999 -6.027000 0.539000
			CHANNELS 3 Xrotation Yrotation Zrotation
			JOINT L_legLower0001_bind_JNT
			{
				OFFSET -0.140713 -19.187443 0.040261
				CHANNELS 3 Xrotation Yrotation Zrotation
				JOINT L_foot0001_bind_JNT
				{
					OFFSET -0.132215 -18.028637 -1.138370
					CHANNELS 3 Xrotation Yrotation Zrotation
					JOINT L_foot0002_bind_JNT
					{
						OFFSET 0.007014 -4.693133 9.886524
						CHANNELS 3 Xrotation Yrotation Zrotation
						End Site
						{
							OFFSET 0.000000 0.000000 0.000000
						}
					}
				}
			}
		}
		JOINT R_legUpper0001_bind_JNT
		{
			OFFSET -6.599999 -6.027000 0.539000
			CHANNELS 3 Xrotation Yrotation Zrotation
			JOINT R_legLower0001_bind_JNT
			{
				OFFSET 0.140710 -19.187164 0.040550
				CHANNELS 3 Xrotation Yrotation Zrotation
				JOINT R_foot0001_bind_JNT
				{
					OFFSET 0.132215 -18.028633 -1.138362
					CHANNELS 3 Xrotation Yrotation Zrotation
					JOINT R_foot0002_bind_JNT
					{
						OFFSET -0.007014 -4.693128 9.886505
						CHANNELS 3 Xrotation Yrotation Zrotation
						End Site
						{
							OFFSET 0.000000 0.000000 0.000000
						}
					}
				}
			}
		}
	}
}
MOTION
Frames: 6
Frame Time: 0.033333
0.000000 49.455456 0.000000 0.038794 -1.550947 -0.008834 -1.759563 0.978008 -0.115882 7.849194 0.551408 1.798322 2.947011 0.852285 0.623021 -1.487709 0.399300 2.787853 1.961375 -0.603388 -1.975512 23.394262 -1.944640 -3.281773 -2.919847 10.859230 -3.087318 0.453841 8.393825 -55.980957 15.790997 -8.239119 3.463873 -2.151249 -32.935448 -29.533934 -0.409584 -13.195076 0.972134 -2.508420 -6.131740 56.520920 16.359968 9.083159 -4.622037 3.960499 31.591864 27.867682 0.457773 0.664580 0.141798 -7.281798 1.442388 10.416012 2.344685 3.198728 -0.328150 4.763696 6.163377 -8.648010 0.596071 -0.672696 -0.169383 1.213073 -0.635694 -3.511656 3.577939 -0.501197 -1.318919 -4.804883 -7.789217 4.256588 0.318184 0.233793 -0.170452 
0.214385 49.229153 -0.174134 0.006259 -1.275599 -0.018750 -1.733465 0.798349 -0.189176 8.009276 0.736094 1.688782 3.029054 1.013153 0.927674 -2.285380 -0.029882 2.481112 2.463251 -0.268481 -1.454263 24.071686 -2.309900 -3.821710 -3.412897 10.304373 -3.110480 1.519297 8.786338 -55.594849 14.224520 -9.466541 2.088960 -2.411526 -32.781807 -29.955517 -0.134078 -13.452672 0.375113 -2.392696 -5.562097 57.833157 15.920870 10.020959 -5.036277 2.923034 31.333450 28.090746 0.060301 0.525027 0.155445 -7.350162 1.870045 10.320325 2.720719 3.783705 -0.691911 5.059855 4.504363 -7.525017 0.372676 -0.024449 -0.432449 1.913847 -0.182926 -3.655818 2.838708 -0.139647 -1.212381 -4.589327 -8.326963 4.230347 0.294689 -0.131780 -0.043852 
-0.024665 49.220245 -0.133927 0.000395 -0.961285 -0.006043 -1.706909 0.527093 -0.226318 7.676220 0.876510 1.858108 3.207009 1.095337 0.637495 -2.429873 -0.003761 2.633882 2.327077 -0.526147 -1.496539 24.224323 -2.362413 -3.551772 -3.677310 10.572232 -2.640051 1.639091 8.800935 -55.880772 15.134889 -10.002974 2.341869 -2.444330 -32.460102 -29.844589 -0.332544 -13.693034 0.882140 -2.228965 -5.678363 57.660583 16.266653 10.465801 -4.836917 2.980553 30.779577 27.664585 -0.148131 0.374490 0.083211 -7.124720 1.964846 10.450949 2.501888 4.061043 -0.816190 5.368937 4.227009 -7.236832 0.293878 -0.238189 -0.477798 2.203514 -0.433768 -3.024142 2.958336 -0.115965 -1.251671 -4.809493 -8.474747 4.033570 0.269553 -0.083691 -0.242111 
-0.021024 49.203766 -0.152854 0.003504 -1.194000 -0.014594 -1.835262 0.870509 -0.261188 7.806862 0.940902 1.766157 3.170868 1.113879 0.794151 -2.393529 0.053490 2.700076 2.480184 -0.487544 -1.642499 23.825865 -2.251084 -3.364445 -3.515161 10.791822 -2.507368 1.474257 8.330921 -56.014236 15.153337 -10.316450 2.482175 -2.644070 -32.235443 -29.867138 -0.246828 -13.704544 0.695299 -2.401648 -6.002760 57.720894 16.838339 10.604049 -4.492669 2.680280 30.723848 27.231350 -0.057032 0.735201 0.049632 -7.124535 1.559070 10.599223 2.653657 4.497571 -0.768427 5.127924 4.203234 -7.288724 0.366281 -0.243612 -0.550034 1.823564 -0.268183 -3.214900 3.341493 -0.094594 -0.975808 -5.021523 -8.741843 3.951442 0.522997 0.104240 -0.219426 
-0.100818 49.236622 -0.108460 0.006447 -1.072216 -0.006355 -1.958988 1.038046 -0.291998 7.742957 0.879162 1.981776 2.971570 0.986587 0.790609 -1.746899 0.019947 2.536366 2.248868 -0.528775 -1.269079 24.286797 -2.209200 -3.525390 -3.442558 11.056481 -2.566057 1.823582 8.457695 -55.886307 15.638559 -10.439694 2.830413 -3.244432 -32.268402 -30.080624 -0.060386 -13.912072 0.818292 -1.780841 -6.084478 57.439762 17.269388 11.639640 -4.725650 2.018229 30.164856 26.905334 -0.018267 0.795496 0.185500 -7.147515 1.442250 10.456406 2.962885 4.388981 -0.737143 5.176630 4.362439 -7.423584 -0.034115 -0.394957 -0.486153 1.680580 -0.314021 -3.114346 3.283907 -0.284011 -0.940046 -4.960194 -8.798355 3.814571 0.452245 -0.104731 -0.263134 
-0.175009 49.220951 -0.072290 0.005329 -1.197516 -0.012480 -1.887198 1.328639 -0.157630 7.678801 0.721739 2.065239 2.928360 0.870247 0.924977 -1.698145 0.034847 2.390100 2.356303 -0.766979 -1.394475 24.762581 -2.295570 -3.124773 -3.621424 10.977341 -2.581857 2.149219 9.132933 -55.632908 15.616132 -11.117322 2.379346 -3.623798 -32.143818 -30.149082 -0.120898 -13.915047 0.630913 -1.573799 -6.186405 57.300587 17.022408 12.247731 -4.665656 2.396337 29.916590 26.675692 -0.028902 1.053509 0.201082 -7.365898 1.504794 10.543390 3.553781 3.889071 -0.762553 4.951054 4.428627 -7.605433 -0.161057 -0.134525 -0.528335 1.478559 -0.036992 -3.067591 3.662546 -0.513813 -0.758253 -5.145348 -9.042670 3.541028 0.469269 0.228737 -0.228316 
